<mxfile host="app.diagrams.net" modified="2024-06-05T14:34:46.085Z" agent="Mozilla/5.0 (Windows NT 10.0; Win64; x64) AppleWebKit/537.36 (KHTML, like Gecko) Chrome/125.0.0.0 Safari/537.36 Edg/125.0.0.0" etag="1KjAFXBPpjHmRVoljpTZ" version="24.4.14" type="onedrive">
  <diagram name="ページ1" id="e270IFPBi9IMPY39vvCi">
    <mxGraphModel grid="1" page="1" gridSize="10" guides="1" tooltips="1" connect="1" arrows="1" fold="1" pageScale="1" pageWidth="827" pageHeight="1169" math="0" shadow="0">
      <root>
        <mxCell id="0" />
        <mxCell id="1" parent="0" />
        <mxCell id="7c9RUG23LtjAkj_bUZMY-13" style="edgeStyle=orthogonalEdgeStyle;rounded=0;orthogonalLoop=1;jettySize=auto;html=1;exitX=0.5;exitY=1;exitDx=0;exitDy=0;entryX=0.5;entryY=0;entryDx=0;entryDy=0;" edge="1" parent="1" source="7c9RUG23LtjAkj_bUZMY-1" target="7c9RUG23LtjAkj_bUZMY-2">
          <mxGeometry relative="1" as="geometry" />
        </mxCell>
        <mxCell id="7c9RUG23LtjAkj_bUZMY-1" value="fibo_w(n)関数&lt;div&gt;開始&lt;/div&gt;" style="rounded=0;whiteSpace=wrap;html=1;" vertex="1" parent="1">
          <mxGeometry x="120" y="40" width="120" height="60" as="geometry" />
        </mxCell>
        <mxCell id="7c9RUG23LtjAkj_bUZMY-14" style="edgeStyle=orthogonalEdgeStyle;rounded=0;orthogonalLoop=1;jettySize=auto;html=1;exitX=0.5;exitY=1;exitDx=0;exitDy=0;entryX=0.5;entryY=0;entryDx=0;entryDy=0;" edge="1" parent="1" source="7c9RUG23LtjAkj_bUZMY-2" target="7c9RUG23LtjAkj_bUZMY-4">
          <mxGeometry relative="1" as="geometry" />
        </mxCell>
        <mxCell id="7c9RUG23LtjAkj_bUZMY-2" value="global num1" style="rounded=1;whiteSpace=wrap;html=1;" vertex="1" parent="1">
          <mxGeometry x="120" y="120" width="120" height="60" as="geometry" />
        </mxCell>
        <mxCell id="7c9RUG23LtjAkj_bUZMY-15" style="edgeStyle=orthogonalEdgeStyle;rounded=0;orthogonalLoop=1;jettySize=auto;html=1;exitX=0.5;exitY=1;exitDx=0;exitDy=0;entryX=0.5;entryY=0;entryDx=0;entryDy=0;" edge="1" parent="1" source="7c9RUG23LtjAkj_bUZMY-4" target="7c9RUG23LtjAkj_bUZMY-5">
          <mxGeometry relative="1" as="geometry" />
        </mxCell>
        <mxCell id="7c9RUG23LtjAkj_bUZMY-23" style="edgeStyle=orthogonalEdgeStyle;rounded=0;orthogonalLoop=1;jettySize=auto;html=1;exitX=0;exitY=0.5;exitDx=0;exitDy=0;entryX=0.5;entryY=0;entryDx=0;entryDy=0;" edge="1" parent="1" source="7c9RUG23LtjAkj_bUZMY-4" target="7c9RUG23LtjAkj_bUZMY-7">
          <mxGeometry relative="1" as="geometry">
            <Array as="points">
              <mxPoint x="95" y="240" />
              <mxPoint x="95" y="460" />
            </Array>
          </mxGeometry>
        </mxCell>
        <mxCell id="7c9RUG23LtjAkj_bUZMY-4" value="&lt;div&gt;if&lt;/div&gt;n == 0" style="rhombus;whiteSpace=wrap;html=1;" vertex="1" parent="1">
          <mxGeometry x="115" y="200" width="130" height="80" as="geometry" />
        </mxCell>
        <mxCell id="7c9RUG23LtjAkj_bUZMY-16" style="edgeStyle=orthogonalEdgeStyle;rounded=0;orthogonalLoop=1;jettySize=auto;html=1;exitX=0.5;exitY=1;exitDx=0;exitDy=0;entryX=0.5;entryY=0;entryDx=0;entryDy=0;" edge="1" parent="1" source="7c9RUG23LtjAkj_bUZMY-5" target="7c9RUG23LtjAkj_bUZMY-6">
          <mxGeometry relative="1" as="geometry" />
        </mxCell>
        <mxCell id="7c9RUG23LtjAkj_bUZMY-5" value="num += 1" style="rounded=1;whiteSpace=wrap;html=1;" vertex="1" parent="1">
          <mxGeometry x="120" y="300" width="120" height="60" as="geometry" />
        </mxCell>
        <mxCell id="7c9RUG23LtjAkj_bUZMY-17" style="edgeStyle=orthogonalEdgeStyle;rounded=0;orthogonalLoop=1;jettySize=auto;html=1;exitX=0.5;exitY=1;exitDx=0;exitDy=0;entryX=0.5;entryY=0;entryDx=0;entryDy=0;" edge="1" parent="1" source="7c9RUG23LtjAkj_bUZMY-6" target="7c9RUG23LtjAkj_bUZMY-7">
          <mxGeometry relative="1" as="geometry" />
        </mxCell>
        <mxCell id="7c9RUG23LtjAkj_bUZMY-6" value="return 0" style="rounded=1;whiteSpace=wrap;html=1;" vertex="1" parent="1">
          <mxGeometry x="120" y="380" width="120" height="60" as="geometry" />
        </mxCell>
        <mxCell id="7c9RUG23LtjAkj_bUZMY-18" style="edgeStyle=orthogonalEdgeStyle;rounded=0;orthogonalLoop=1;jettySize=auto;html=1;exitX=0;exitY=0.5;exitDx=0;exitDy=0;entryX=0.5;entryY=0;entryDx=0;entryDy=0;" edge="1" parent="1" source="7c9RUG23LtjAkj_bUZMY-7" target="7c9RUG23LtjAkj_bUZMY-8">
          <mxGeometry relative="1" as="geometry" />
        </mxCell>
        <mxCell id="7c9RUG23LtjAkj_bUZMY-19" style="edgeStyle=orthogonalEdgeStyle;rounded=0;orthogonalLoop=1;jettySize=auto;html=1;exitX=1;exitY=0.5;exitDx=0;exitDy=0;entryX=0.5;entryY=0;entryDx=0;entryDy=0;" edge="1" parent="1">
          <mxGeometry relative="1" as="geometry">
            <mxPoint x="265" y="562" as="targetPoint" />
            <mxPoint x="240" y="502" as="sourcePoint" />
          </mxGeometry>
        </mxCell>
        <mxCell id="7c9RUG23LtjAkj_bUZMY-7" value="&lt;div&gt;elif&lt;/div&gt;n == 1" style="rhombus;whiteSpace=wrap;html=1;" vertex="1" parent="1">
          <mxGeometry x="115" y="460" width="130" height="80" as="geometry" />
        </mxCell>
        <mxCell id="7c9RUG23LtjAkj_bUZMY-20" style="edgeStyle=orthogonalEdgeStyle;rounded=0;orthogonalLoop=1;jettySize=auto;html=1;exitX=0.5;exitY=1;exitDx=0;exitDy=0;entryX=0.5;entryY=0;entryDx=0;entryDy=0;" edge="1" parent="1" source="7c9RUG23LtjAkj_bUZMY-8" target="7c9RUG23LtjAkj_bUZMY-9">
          <mxGeometry relative="1" as="geometry" />
        </mxCell>
        <mxCell id="7c9RUG23LtjAkj_bUZMY-8" value="num1 += 1" style="rounded=1;whiteSpace=wrap;html=1;" vertex="1" parent="1">
          <mxGeometry x="30" y="560" width="120" height="60" as="geometry" />
        </mxCell>
        <mxCell id="7c9RUG23LtjAkj_bUZMY-28" style="edgeStyle=orthogonalEdgeStyle;rounded=0;orthogonalLoop=1;jettySize=auto;html=1;exitX=0.5;exitY=1;exitDx=0;exitDy=0;entryX=0.5;entryY=0;entryDx=0;entryDy=0;" edge="1" parent="1" source="7c9RUG23LtjAkj_bUZMY-9" target="7c9RUG23LtjAkj_bUZMY-12">
          <mxGeometry relative="1" as="geometry">
            <Array as="points">
              <mxPoint x="90" y="720" />
            </Array>
          </mxGeometry>
        </mxCell>
        <mxCell id="7c9RUG23LtjAkj_bUZMY-9" value="return 1" style="rounded=1;whiteSpace=wrap;html=1;" vertex="1" parent="1">
          <mxGeometry x="30" y="640" width="120" height="60" as="geometry" />
        </mxCell>
        <mxCell id="7c9RUG23LtjAkj_bUZMY-21" style="edgeStyle=orthogonalEdgeStyle;rounded=0;orthogonalLoop=1;jettySize=auto;html=1;exitX=0.5;exitY=1;exitDx=0;exitDy=0;entryX=0.5;entryY=0;entryDx=0;entryDy=0;" edge="1" parent="1" source="7c9RUG23LtjAkj_bUZMY-10" target="7c9RUG23LtjAkj_bUZMY-11">
          <mxGeometry relative="1" as="geometry" />
        </mxCell>
        <mxCell id="7c9RUG23LtjAkj_bUZMY-10" value="num += 1" style="rounded=1;whiteSpace=wrap;html=1;" vertex="1" parent="1">
          <mxGeometry x="210" y="560" width="120" height="60" as="geometry" />
        </mxCell>
        <mxCell id="7c9RUG23LtjAkj_bUZMY-29" style="edgeStyle=orthogonalEdgeStyle;rounded=0;orthogonalLoop=1;jettySize=auto;html=1;exitX=0.5;exitY=1;exitDx=0;exitDy=0;entryX=0.5;entryY=0;entryDx=0;entryDy=0;" edge="1" parent="1" source="7c9RUG23LtjAkj_bUZMY-11" target="7c9RUG23LtjAkj_bUZMY-12">
          <mxGeometry relative="1" as="geometry" />
        </mxCell>
        <mxCell id="7c9RUG23LtjAkj_bUZMY-11" value="return fibo_w(n-1)+fibo_w(n-2)" style="rounded=1;whiteSpace=wrap;html=1;" vertex="1" parent="1">
          <mxGeometry x="210" y="640" width="120" height="60" as="geometry" />
        </mxCell>
        <mxCell id="7c9RUG23LtjAkj_bUZMY-12" value="終了" style="rounded=0;whiteSpace=wrap;html=1;" vertex="1" parent="1">
          <mxGeometry x="120" y="740" width="120" height="60" as="geometry" />
        </mxCell>
        <mxCell id="7c9RUG23LtjAkj_bUZMY-22" value="True" style="text;html=1;align=center;verticalAlign=middle;resizable=0;points=[];autosize=1;strokeColor=none;fillColor=none;" vertex="1" parent="1">
          <mxGeometry x="175" y="268" width="50" height="30" as="geometry" />
        </mxCell>
        <mxCell id="7c9RUG23LtjAkj_bUZMY-24" value="False" style="text;html=1;align=center;verticalAlign=middle;resizable=0;points=[];autosize=1;strokeColor=none;fillColor=none;" vertex="1" parent="1">
          <mxGeometry x="65" y="208" width="50" height="30" as="geometry" />
        </mxCell>
        <mxCell id="7c9RUG23LtjAkj_bUZMY-25" value="True" style="text;html=1;align=center;verticalAlign=middle;resizable=0;points=[];autosize=1;strokeColor=none;fillColor=none;" vertex="1" parent="1">
          <mxGeometry x="65" y="468" width="50" height="30" as="geometry" />
        </mxCell>
        <mxCell id="7c9RUG23LtjAkj_bUZMY-26" value="False" style="text;html=1;align=center;verticalAlign=middle;resizable=0;points=[];autosize=1;strokeColor=none;fillColor=none;" vertex="1" parent="1">
          <mxGeometry x="240" y="460" width="50" height="30" as="geometry" />
        </mxCell>
      </root>
    </mxGraphModel>
  </diagram>
</mxfile>
